# xmcd
#
# Track frame offsets:
# 150
# 14957
# 33621
# 48733
# 63853
# 79915
# 96265
# 110524
# 127590
# 143014
# 161776
# 178204
# 196232
# 212515
# 229752
# 244465
# 257950
# 275368
# 291639
# 308847
#
# Disc length: 4403 seconds
#
#
# Revision: 0
# Processed by: cddbd v1.5.1PL0 Copyright (c) Steve Scherf et al.
# Submitted via: FreeRIP 2.942 
#
DISCID=34113114
DTITLE=Variados - Brasil Sertanejo 2005 - Vol.02 
DYEAR=2005
DGENRE=Country
TTITLE0=Coração - Guilherme e Tiago
TTITLE1=Desatino - Daniel
TTITLE2=Cuida do Nosso Amor - Bruno e Marrone
TTITLE3=Tô Mal - Rionegro e Solimões
TTITLE4=Apaixonado por Você - Zezé de Camargo e Luciano
TTITLE5=Foto 3x4 - Gilberto e Gilmar
TTITLE6=Saudade Desse Amor - Rick e Renner
TTITLE7=Dois Estranhos - Juliano Cesar
TTITLE8=Tá no Meu Coração - Edson e Hudson
TTITLE9=I Love You Baby - Cezar e Paulinho
TTITLE10=Instinto Animal - Zé Henrique e Gabriel
TTITLE11=Tentei te Esquecer - Matogrosso e Mathias
TTITLE12=Eu Quero Voltar Prá Você - Adalberto e Adriano
TTITLE13=A Hora da Despedida - Alan e Aladim
TTITLE14=Apaixonado.com - Teodoro e Sampaio
TTITLE15=Acordo Prá Sonhar - Ataide e Alexandre
TTITLE16=Linda Demais - Eduardo Costa
TTITLE17=Apaixonado - Hugo e Tiago
TTITLE18=Acidente de Amor - Gino e Geno
TTITLE19=Sonônimos - Chitãozinho e Xororó
EXTD=
EXTT0=
EXTT1=
EXTT2=
EXTT3=
EXTT4=
EXTT5=
EXTT6=
EXTT7=
EXTT8=
EXTT9=
EXTT10=
EXTT11=
EXTT12=
EXTT13=
EXTT14=
EXTT15=
EXTT16=
EXTT17=
EXTT18=
EXTT19=
PLAYORDER=
